<svg xmlns="http://www.w3.org/2000/svg" xmlns:xlink="http://www.w3.org/1999/xlink" width="1080" zoomAndPan="magnify" viewBox="0 0 810 809.999993" height="1080" preserveAspectRatio="xMidYMid meet" version="1.0"><defs><clipPath id="5718738029"><path d="M 163.214844 275 L 646.777344 275 L 646.777344 668.910156 L 163.214844 668.910156 Z M 163.214844 275 " clip-rule="nonzero"/></clipPath></defs><g clip-path="url(#5718738029)"><path fill="#000000" d="M 177.285156 437.101562 C 184.5 430.679688 195.667969 431.296875 202.089844 438.597656 C 208.511719 445.898438 207.894531 456.980469 200.59375 463.402344 C 199.011719 464.808594 198.394531 465.863281 198.308594 465.511719 C 199.980469 470.527344 221.351562 483.542969 260.226562 483.542969 C 278.523438 483.542969 292.769531 480.640625 303.0625 477.125 C 303.148438 477.125 303.148438 477.125 303.238281 477.035156 C 314.757812 473.078125 321.269531 468.414062 322.058594 466.128906 C 321.53125 464.457031 314.582031 456.539062 292.507812 451.527344 C 283.007812 449.417969 277.113281 439.917969 279.226562 430.503906 C 281.425781 421.003906 290.835938 415.023438 300.246094 417.222656 C 301.566406 417.488281 302.710938 417.925781 303.941406 418.277344 L 407.113281 348 C 395.414062 339.292969 388.730469 328.207031 388.730469 315.804688 C 388.730469 307.097656 392.335938 290.5625 416.523438 277.632812 C 425.140625 273.058594 435.785156 276.3125 440.359375 284.84375 C 444.933594 293.375 441.679688 304.105469 433.144531 308.679688 C 426.460938 312.289062 424.175781 315.367188 423.910156 315.453125 C 425.40625 320.203125 444.667969 332.519531 481.34375 333.398438 C 481.699219 333.398438 482.050781 333.398438 482.3125 333.484375 C 483.457031 333.574219 484.511719 333.574219 485.65625 333.574219 C 486.796875 333.574219 487.855469 333.574219 488.996094 333.484375 C 489.347656 333.484375 489.699219 333.398438 489.964844 333.398438 C 526.640625 332.429688 545.992188 320.203125 547.488281 316.15625 C 547.222656 315.367188 544.9375 312.289062 538.253906 308.679688 C 529.71875 304.105469 526.464844 293.464844 531.039062 284.84375 C 535.613281 276.222656 546.257812 273.058594 554.875 277.632812 C 579.0625 290.5625 582.667969 307.097656 582.667969 315.804688 C 582.667969 345.449219 545.113281 367.085938 491.371094 368.582031 C 489.4375 368.757812 487.589844 368.757812 485.65625 368.757812 C 483.71875 368.757812 481.875 368.757812 479.9375 368.582031 C 467.535156 368.230469 456.015625 366.734375 445.546875 364.449219 L 341.058594 435.605469 C 351.347656 444.050781 357.066406 454.429688 357.066406 465.863281 C 357.066406 476.242188 352.667969 485.128906 345.28125 492.515625 L 506.5 573.175781 C 515.207031 577.484375 518.726562 588.128906 514.328125 596.75 C 511.601562 602.113281 506.589844 605.367188 501.046875 606.160156 C 500.078125 607.039062 498.9375 607.832031 497.703125 608.445312 C 490.492188 612.140625 488.117188 615.394531 487.855469 615.570312 C 489.347656 620.234375 509.753906 632.898438 547.574219 633.601562 C 548.277344 633.601562 548.984375 633.601562 549.6875 633.601562 C 550.476562 633.601562 551.179688 633.601562 552.675781 633.515625 C 589.707031 632.898438 610.109375 620.234375 611.605469 616.273438 C 611.34375 615.394531 608.96875 612.140625 601.753906 608.445312 C 593.136719 603.960938 589.792969 593.40625 594.191406 584.699219 C 598.589844 575.988281 609.320312 572.734375 617.9375 577.132812 C 643.007812 590.152344 646.699219 606.953125 646.699219 615.835938 C 646.699219 646.003906 608.265625 667.644531 553.996094 668.609375 C 552.675781 668.785156 551.355469 668.785156 549.863281 668.785156 C 548.367188 668.785156 546.960938 668.785156 546.34375 668.699219 C 491.285156 667.730469 452.9375 646.003906 452.9375 615.921875 C 452.9375 609.941406 454.695312 600.441406 463.316406 590.855469 L 307.019531 512.660156 C 292.59375 516.707031 276.410156 518.816406 260.226562 518.816406 C 212.027344 518.816406 163.214844 500.695312 163.214844 465.953125 C 163.214844 458.476562 165.675781 447.480469 177.285156 437.101562 Z M 177.285156 437.101562 " fill-opacity="1" fill-rule="nonzero"/></g><path fill="#000000" d="M 485.832031 301.554688 C 481.082031 301.554688 476.597656 299.621094 473.253906 296.277344 C 460.414062 283.171875 418.371094 237.875 418.371094 206.648438 C 418.371094 170.496094 448.625 141.03125 485.832031 141.03125 C 523.035156 141.03125 553.292969 170.496094 553.292969 206.648438 C 553.292969 237.960938 511.25 283.171875 498.410156 296.277344 C 495.066406 299.621094 490.582031 301.554688 485.832031 301.554688 Z M 485.832031 176.214844 C 468.0625 176.214844 453.550781 189.847656 453.550781 206.648438 C 453.550781 215.972656 468.59375 238.136719 485.832031 258.015625 C 502.980469 238.136719 518.109375 215.972656 518.109375 206.648438 C 518.109375 189.847656 503.597656 176.214844 485.832031 176.214844 Z M 485.832031 176.214844 " fill-opacity="1" fill-rule="nonzero"/><path fill="#000000" d="M 236.214844 456.980469 C 231.464844 456.980469 226.980469 455.046875 223.640625 451.703125 C 210.796875 438.597656 168.753906 393.296875 168.753906 362.074219 C 168.753906 325.921875 199.011719 296.453125 236.214844 296.453125 C 273.421875 296.453125 303.675781 325.921875 303.675781 362.074219 C 303.675781 393.386719 261.636719 438.597656 248.792969 451.703125 C 245.453125 455.046875 240.964844 456.980469 236.214844 456.980469 Z M 236.214844 331.636719 C 218.449219 331.636719 203.9375 345.273438 203.9375 362.074219 C 203.9375 371.394531 218.976562 393.5625 236.214844 413.441406 C 253.367188 393.5625 268.496094 371.394531 268.496094 362.074219 C 268.496094 345.273438 254.070312 331.636719 236.214844 331.636719 Z M 236.214844 331.636719 " fill-opacity="1" fill-rule="nonzero"/><path fill="#000000" d="M 554.4375 596.835938 C 549.6875 596.835938 545.199219 594.902344 541.859375 591.558594 C 529.015625 578.453125 486.972656 533.152344 486.972656 501.929688 C 486.972656 465.777344 517.230469 436.308594 554.4375 436.308594 C 591.640625 436.308594 621.898438 465.777344 621.898438 501.929688 C 621.898438 533.152344 579.855469 578.453125 567.011719 591.558594 C 563.671875 594.902344 559.183594 596.835938 554.4375 596.835938 Z M 554.4375 471.492188 C 536.667969 471.492188 522.15625 485.128906 522.15625 501.929688 C 522.15625 511.25 537.195312 533.417969 554.4375 553.296875 C 571.410156 533.59375 586.714844 511.074219 586.714844 501.929688 C 586.714844 485.128906 572.203125 471.492188 554.4375 471.492188 Z M 554.4375 471.492188 " fill-opacity="1" fill-rule="nonzero"/></svg>